<svg width="64" height="64" viewBox="0 0 64 64" fill="none" xmlns="http://www.w3.org/2000/svg">
<path d="M30.0613 22.96C30.1893 23.472 30.2533 24.112 30.2533 24.88C30.2533 25.616 30.1893 26.256 30.0613 26.8C30.1893 27.312 30.2533 27.952 30.2533 28.72C30.2533 29.456 30.1893 30.096 30.0613 30.64C30.1893 31.152 30.2533 31.792 30.2533 32.56C30.2533 33.296 30.1893 33.936 30.0613 34.48C30.1893 34.992 30.2533 35.632 30.2533 36.4C30.2533 37.136 30.1893 37.776 30.0613 38.32C30.1893 38.832 30.2533 39.472 30.2533 40.24C30.2533 40.976 30.1893 41.616 30.0613 42.16C30.1893 42.672 30.2533 43.312 30.2533 44.08C30.2533 44.816 30.1893 45.456 30.0613 46H26.2213C26.0933 45.456 26.0293 44.816 26.0293 44.08C26.0293 43.312 26.0933 42.672 26.2213 42.16C26.0933 41.616 26.0293 40.976 26.0293 40.24C26.0293 39.472 26.0933 38.832 26.2213 38.32C26.0933 37.776 26.0293 37.136 26.0293 36.4C26.0293 35.632 26.0933 34.992 26.2213 34.48C26.0933 33.936 26.0293 33.296 26.0293 32.56C26.0293 31.792 26.0933 31.152 26.2213 30.64C26.0933 30.096 26.0293 29.456 26.0293 28.72C26.0293 27.952 26.0933 27.312 26.2213 26.8H24.7812C24.9093 27.312 24.9733 27.952 24.9733 28.72C24.9733 29.456 24.9093 30.096 24.7812 30.64C24.9093 31.152 24.9733 31.792 24.9733 32.56C24.9733 33.296 24.9093 33.936 24.7812 34.48H23.8213C23.9493 34.992 24.0133 35.632 24.0133 36.4C24.0133 37.136 23.9493 37.776 23.8213 38.32C23.9493 38.832 24.0133 39.472 24.0133 40.24C24.0133 40.976 23.9493 41.616 23.8213 42.16H20.9413C20.8133 41.616 20.7493 40.976 20.7493 40.24C20.7493 39.472 20.8133 38.832 20.9413 38.32C20.8133 37.776 20.7493 37.136 20.7493 36.4C20.7493 35.632 20.8133 34.992 20.9413 34.48H19.9813C19.8533 33.936 19.7893 33.296 19.7893 32.56C19.7893 31.792 19.8533 31.152 19.9813 30.64C19.8533 30.096 19.7893 29.456 19.7893 28.72C19.7893 27.952 19.8533 27.312 19.9813 26.8H18.5413C18.6693 27.312 18.7333 27.952 18.7333 28.72C18.7333 29.456 18.6693 30.096 18.5413 30.64C18.6693 31.152 18.7333 31.792 18.7333 32.56C18.7333 33.296 18.6693 33.936 18.5413 34.48C18.6693 34.992 18.7333 35.632 18.7333 36.4C18.7333 37.136 18.6693 37.776 18.5413 38.32C18.6693 38.832 18.7333 39.472 18.7333 40.24C18.7333 40.976 18.6693 41.616 18.5413 42.16C18.6693 42.672 18.7333 43.312 18.7333 44.08C18.7333 44.816 18.6693 45.456 18.5413 46H14.7013C14.5733 45.456 14.5093 44.816 14.5093 44.08C14.5093 43.312 14.5733 42.672 14.7013 42.16C14.5733 41.616 14.5093 40.976 14.5093 40.24C14.5093 39.472 14.5733 38.832 14.7013 38.32C14.5733 37.776 14.5093 37.136 14.5093 36.4C14.5093 35.632 14.5733 34.992 14.7013 34.48C14.5733 33.936 14.5093 33.296 14.5093 32.56C14.5093 31.792 14.5733 31.152 14.7013 30.64C14.5733 30.096 14.5093 29.456 14.5093 28.72C14.5093 27.952 14.5733 27.312 14.7013 26.8C14.5733 26.256 14.5093 25.616 14.5093 24.88C14.5093 24.112 14.5733 23.472 14.7013 22.96C14.5733 22.416 14.5093 21.776 14.5093 21.04C14.5093 20.272 14.5733 19.632 14.7013 19.12H19.5013C19.6293 19.632 19.6933 20.272 19.6933 21.04C19.6933 21.776 19.6293 22.416 19.5013 22.96H20.9413C21.0693 23.472 21.1333 24.112 21.1333 24.88C21.1333 25.616 21.0693 26.256 20.9413 26.8H21.6613C21.7893 27.312 21.8533 27.952 21.8533 28.72C21.8533 29.456 21.7893 30.096 21.6613 30.64H23.1013C22.9733 30.096 22.9093 29.456 22.9093 28.72C22.9093 27.952 22.9733 27.312 23.1013 26.8H23.8213C23.6933 26.256 23.6293 25.616 23.6293 24.88C23.6293 24.112 23.6933 23.472 23.8213 22.96H25.2613C25.1333 22.416 25.0693 21.776 25.0693 21.04C25.0693 20.272 25.1333 19.632 25.2613 19.12H30.0613C30.1893 19.632 30.2533 20.272 30.2533 21.04C30.2533 21.776 30.1893 22.416 30.0613 22.96ZM47.36 30.64C47.488 31.152 47.552 31.792 47.552 32.56C47.552 33.296 47.488 33.936 47.36 34.48H39.68C39.808 34.992 39.872 35.632 39.872 36.4C39.872 37.136 39.808 37.776 39.68 38.32C39.808 38.832 39.872 39.472 39.872 40.24C39.872 40.976 39.808 41.616 39.68 42.16C39.808 42.672 39.872 43.312 39.872 44.08C39.872 44.816 39.808 45.456 39.68 46H35.84C35.712 45.456 35.648 44.816 35.648 44.08C35.648 43.312 35.712 42.672 35.84 42.16C35.712 41.616 35.648 40.976 35.648 40.24C35.648 39.472 35.712 38.832 35.84 38.32C35.712 37.776 35.648 37.136 35.648 36.4C35.648 35.632 35.712 34.992 35.84 34.48C35.712 33.936 35.648 33.296 35.648 32.56C35.648 31.792 35.712 31.152 35.84 30.64C35.712 30.096 35.648 29.456 35.648 28.72C35.648 27.952 35.712 27.312 35.84 26.8C35.712 26.256 35.648 25.616 35.648 24.88C35.648 24.112 35.712 23.472 35.84 22.96C35.712 22.416 35.648 21.776 35.648 21.04C35.648 20.272 35.712 19.632 35.84 19.12H47.36C47.488 19.632 47.552 20.272 47.552 21.04C47.552 21.776 47.488 22.416 47.36 22.96H39.68C39.808 23.472 39.872 24.112 39.872 24.88C39.872 25.616 39.808 26.256 39.68 26.8C39.808 27.312 39.872 27.952 39.872 28.72C39.872 29.456 39.808 30.096 39.68 30.64H47.36Z" fill="#0EA5E9"/>
</svg>
